<svg version="1.1" id="Layer_1" xmlns="http://www.w3.org/2000/svg" xmlns:xlink="http://www.w3.org/1999/xlink" x="0px" y="0px"
	 width="100%" viewBox="0 0 163 148" enable-background="new 0 0 163 148" xml:space="preserve">
<path fill="#030202" opacity="1.000000" stroke="none" 
	d="
M56.000000,149.000000 
	C37.698669,149.000000 19.397335,149.000000 1.048002,149.000000 
	C1.048002,99.784821 1.048002,50.569580 1.048002,1.000000 
	C16.685783,1.000000 32.374233,1.000000 48.868584,1.260990 
	C49.102577,2.049862 48.586166,2.658969 47.950382,3.093364 
	C39.327675,8.984764 39.551502,15.985382 48.530704,21.114880 
	C49.220070,21.508690 49.828350,22.044436 50.474319,22.514212 
	C49.980537,22.478882 49.486755,22.443550 48.992973,22.408220 
	C46.977764,31.556997 45.027351,40.720798 42.911572,49.846260 
	C42.188549,52.964687 41.565750,56.281139 40.012074,59.001648 
	C33.618061,70.197662 35.115288,80.435814 44.534897,87.220024 
	C47.758389,84.842003 50.980328,82.461876 54.205349,80.085930 
	C57.104008,77.950409 59.351170,78.580704 62.091614,80.929535 
	C64.120323,82.668343 67.322037,84.188499 69.852295,83.981972 
	C78.283539,83.293785 85.407829,89.134720 85.253098,97.409904 
	C85.226418,98.836624 85.249321,100.264267 85.249321,101.853584 
	C87.338554,101.853584 88.826874,101.887634 90.312920,101.843887 
	C91.761803,101.801224 93.208336,101.679024 95.464340,101.542999 
	C95.166298,98.876915 95.765549,95.787827 94.505127,94.447281 
	C89.457588,89.078911 89.384880,87.584061 95.470200,83.538963 
	C93.665756,83.446785 91.810204,84.173119 90.168068,83.841766 
	C88.461342,83.497383 86.960953,82.130486 84.419601,80.660973 
	C86.341194,80.131851 86.689827,79.904869 86.911018,79.994041 
	C93.050110,82.468658 92.932411,82.450989 94.175751,76.197533 
	C94.528801,74.421822 95.769241,72.822533 96.602722,71.142342 
	C97.089111,71.328918 97.575493,71.515488 98.061874,71.702057 
	C98.061874,75.576050 98.061874,79.450035 98.061874,83.621941 
	C106.616455,81.192932 107.394226,81.646294 109.954292,88.516098 
	C114.946846,88.848579 119.252373,89.182655 123.564110,89.383736 
	C124.459091,89.425476 125.505608,89.183258 126.264580,88.717300 
	C133.844818,84.063507 138.355362,73.956612 134.295914,66.276085 
	C129.966049,58.083878 129.107025,49.609348 127.637581,40.897713 
	C126.558151,34.498260 123.499153,28.432714 121.212189,21.903864 
	C121.613823,21.662525 122.287064,21.229532 122.985947,20.842876 
	C126.259109,19.032019 129.576889,17.112854 129.387177,12.740775 
	C129.190659,8.212213 126.763382,5.013966 122.682289,2.990821 
	C121.968071,2.636761 121.553154,1.678962 121.000000,0.999999 
	C135.307053,1.000000 149.614105,1.000000 163.960571,1.000000 
	C163.960571,50.216568 163.960571,99.433174 163.960571,149.000000 
	C148.314178,149.000000 132.625748,149.000000 116.242508,148.638565 
	C116.705536,142.374756 117.863388,136.472382 119.089539,130.221848 
	C113.930794,130.982620 110.188614,131.903809 106.421120,132.022720 
	C93.734268,132.423172 81.354675,134.676407 69.129539,137.848267 
	C64.052925,139.165405 60.167274,139.215378 59.041393,132.748901 
	C58.871777,131.774689 56.753101,131.139832 55.536011,130.348007 
	C54.841656,131.739395 53.437126,133.208572 53.579525,134.508286 
	C54.112072,139.368896 55.150982,144.174057 56.000000,149.000000 
M55.044106,104.958191 
	C56.032307,105.092751 57.020508,105.227310 58.472916,105.796112 
	C59.903412,106.821022 61.333908,107.845932 62.985020,109.476776 
	C63.613094,110.330383 64.241173,111.183990 64.956604,112.686050 
	C65.155228,113.070549 65.353851,113.455055 65.438004,114.769379 
	C65.588051,116.302361 65.738098,117.835342 65.726273,119.507286 
	C65.726273,119.507286 65.885933,119.648804 65.519463,120.398697 
	C65.381195,121.215973 65.242935,122.033241 64.694740,123.428162 
	C63.856995,124.658356 62.309551,125.899086 62.327637,127.116554 
	C62.366589,129.738861 63.004852,132.423965 63.904293,134.899368 
	C64.077728,135.376694 66.564873,135.013351 68.759415,135.032547 
	C69.529625,134.968552 70.299843,134.904541 71.752380,134.802826 
	C72.816902,134.456390 73.881424,134.109955 75.655296,133.801147 
	C76.543076,133.524780 77.430855,133.248413 79.160454,133.107956 
	C83.272232,132.218384 80.977898,129.038681 81.728638,126.132141 
	C81.795479,120.061501 81.862328,113.990860 82.080070,107.085526 
	C82.080070,102.558235 82.080070,98.030945 82.080070,93.139824 
	C80.492485,93.535912 79.254608,93.844757 77.360725,94.104347 
	C76.562370,94.376389 75.764023,94.648430 74.202393,94.860825 
	C73.201279,95.025314 72.200157,95.189804 70.519150,95.309944 
	C69.647781,95.553825 68.776421,95.797707 67.138657,95.902901 
	C66.135353,96.128555 65.132057,96.354210 63.446182,96.525581 
	C62.558399,96.743423 61.670612,96.961273 60.118019,97.086494 
	C59.067070,97.360428 58.016117,97.634354 56.119316,97.916573 
	C55.284687,98.047325 54.450058,98.178070 52.971035,98.228203 
	C51.834873,98.595551 50.698711,98.962898 49.514557,99.345757 
	C50.412025,102.198463 49.938911,105.731880 55.044106,104.958191 
M98.206810,87.780968 
	C96.451332,88.130333 93.489822,88.023277 93.154251,88.909996 
	C91.868530,92.307388 94.966202,91.837791 96.921806,92.132057 
	C97.593323,92.233101 98.312943,92.014427 99.690430,91.684639 
	C102.326347,90.525848 104.962265,89.367058 108.637901,87.751190 
	C106.883018,86.290001 105.282677,84.055450 104.250557,84.292709 
	C102.318832,84.736778 100.716461,86.613609 98.206810,87.780968 
M52.182564,87.334938 
	C45.535721,84.827042 46.562584,92.553154 42.725754,93.748001 
	C46.939575,101.224991 48.560661,90.887489 51.827888,93.038315 
	C52.509460,91.374199 53.191032,89.710091 54.550377,87.527260 
	C56.036137,87.235886 57.521896,86.944511 59.860359,86.997154 
	C59.413948,89.130936 58.967533,91.264717 58.428864,93.839455 
	C59.864323,93.703445 62.383919,93.350876 64.913376,93.252922 
	C68.330101,93.120598 69.067947,90.983597 67.683182,88.652359 
	C66.775871,87.124908 64.532234,86.099457 62.678654,85.540733 
	C61.648605,85.230247 60.190815,86.338783 58.876373,86.015305 
	C59.122658,84.459229 59.368938,82.903152 59.615223,81.347076 
	C58.088036,81.736992 56.527542,82.030861 55.043591,82.545456 
	C53.718132,83.005096 52.477184,83.708450 51.336250,84.240265 
	C51.882751,85.180397 52.438477,86.136391 52.182564,87.334938 
M100.370232,113.502876 
	C99.237083,112.315941 97.867676,111.277565 97.011726,109.916328 
	C93.334534,104.068443 92.151924,103.572289 84.370743,105.908180 
	C84.370743,112.553291 84.463425,119.504524 84.326752,126.451256 
	C84.269196,129.376328 85.627098,130.418457 88.236885,130.115738 
	C97.425407,129.049911 106.676834,128.303253 115.764587,126.661575 
	C123.216393,125.315422 120.845459,125.209808 119.650002,116.901138 
	C118.988258,112.301849 115.570007,113.998314 112.691330,114.130676 
	C108.820992,114.308624 104.928780,114.010551 100.370232,113.502876 
M61.942806,113.836082 
	C59.770054,109.570976 56.297897,107.273453 51.511742,107.698601 
	C47.419388,108.062103 44.356522,110.317688 42.855633,114.235199 
	C41.183098,118.600731 42.254562,122.540375 45.706608,125.517509 
	C49.317425,128.631577 53.584053,129.111877 57.692066,126.563797 
	C62.136292,123.807182 63.712669,119.687508 61.942806,113.836082 
M101.614151,94.927345 
	C97.297119,99.561264 96.668015,104.610336 99.903084,108.660103 
	C103.193634,112.779358 109.095757,113.602600 113.801056,110.598625 
	C118.554764,107.563744 120.389450,102.936684 118.457718,98.854622 
	C116.214684,94.114723 109.925713,91.589325 104.427437,93.275589 
	C103.651405,93.513588 102.962685,94.036285 101.614151,94.927345 
M119.846954,110.733055 
	C126.099136,108.412285 128.425781,104.200623 126.871330,98.017715 
	C125.744843,93.537064 121.508224,90.925735 116.507446,91.629707 
	C123.717072,98.615402 124.129051,101.306107 119.846954,110.733055 
M44.810474,98.411957 
	C42.683613,97.043251 41.585487,98.244370 41.419926,100.149055 
	C41.173725,102.981506 41.356133,105.851212 41.356133,109.360992 
	C44.329269,107.378296 46.350277,106.030548 48.819489,104.383911 
	C47.622448,102.378326 46.559925,100.598122 44.810474,98.411957 
M73.006409,91.977356 
	C75.349403,91.493118 77.692406,91.008881 80.035400,90.524643 
	C79.179207,88.980225 78.075577,88.472847 76.944862,88.035492 
	C76.015816,87.676132 74.706108,87.688911 74.166489,87.038109 
	C71.492104,83.812660 70.584335,86.055916 69.415291,88.095314 
	C70.484634,89.507011 71.368187,90.673431 73.006409,91.977356 
z"/>
<path fill="#F7DD6E" opacity="1.000000" stroke="none" 
	d="
M120.583336,0.999999 
	C121.553154,1.678962 121.968071,2.636761 122.682289,2.990821 
	C126.763382,5.013966 129.190659,8.212213 129.387177,12.740775 
	C129.576889,17.112854 126.259109,19.032019 122.985947,20.842876 
	C122.287064,21.229532 121.613823,21.662525 121.212189,21.903864 
	C123.499153,28.432714 126.558151,34.498260 127.637581,40.897713 
	C129.107025,49.609348 129.966049,58.083878 134.295914,66.276085 
	C138.355362,73.956612 133.844818,84.063507 126.264580,88.717300 
	C125.505608,89.183258 124.459091,89.425476 123.564110,89.383736 
	C119.252373,89.182655 114.946846,88.848579 109.954292,88.516098 
	C107.394226,81.646294 106.616455,81.192932 98.061874,83.621941 
	C98.061874,79.450035 98.061874,75.576050 98.061874,71.702057 
	C97.575493,71.515488 97.089111,71.328918 96.602722,71.142342 
	C95.769241,72.822533 94.528801,74.421822 94.175751,76.197533 
	C92.932411,82.450989 93.050110,82.468658 86.911018,79.994041 
	C86.689827,79.904869 86.341194,80.131851 84.419601,80.660973 
	C86.960953,82.130486 88.461342,83.497383 90.168068,83.841766 
	C91.810204,84.173119 93.665756,83.446785 95.470200,83.538963 
	C89.384880,87.584061 89.457588,89.078911 94.505127,94.447281 
	C95.765549,95.787827 95.166298,98.876915 95.464340,101.542999 
	C93.208336,101.679024 91.761803,101.801224 90.312920,101.843887 
	C88.826874,101.887634 87.338554,101.853584 85.249321,101.853584 
	C85.249321,100.264267 85.226418,98.836624 85.253098,97.409904 
	C85.407829,89.134720 78.283539,83.293785 69.852295,83.981972 
	C67.322037,84.188499 64.120323,82.668343 62.091614,80.929535 
	C59.351170,78.580704 57.104008,77.950409 54.205349,80.085930 
	C50.980328,82.461876 47.758389,84.842003 44.534897,87.220024 
	C35.115288,80.435814 33.618061,70.197662 40.012074,59.001648 
	C41.565750,56.281139 42.188549,52.964687 42.911572,49.846260 
	C45.027351,40.720798 46.977764,31.556997 48.992973,22.408220 
	C49.486755,22.443550 49.980537,22.478882 50.474319,22.514212 
	C49.828350,22.044436 49.220070,21.508690 48.530704,21.114880 
	C39.551502,15.985382 39.327675,8.984764 47.950382,3.093364 
	C48.586166,2.658969 49.102577,2.049862 49.337242,1.260990 
	C50.714359,1.000000 52.428715,1.000000 54.325974,1.310578 
	C56.848701,4.056435 59.064804,6.632085 61.589573,8.857551 
	C62.592339,9.741437 64.689659,10.651279 65.593071,10.189244 
	C78.332626,3.673777 91.089775,4.304441 103.979141,9.557972 
	C105.604576,10.220479 107.305962,10.696670 108.463760,11.087548 
	C111.250786,7.357005 113.625389,4.178501 116.000000,0.999999 
	C117.388893,1.000000 118.777779,1.000000 120.583336,0.999999 
M83.994095,72.826859 
	C85.445404,72.646957 87.372459,72.990387 88.256630,72.186615 
	C90.672806,69.990143 92.649406,67.310112 94.800102,64.821602 
	C92.109802,63.562469 89.425392,61.313057 86.727699,61.297016 
	C83.419304,61.277351 78.150230,62.240646 77.192474,64.350960 
	C75.221207,68.694427 79.995720,70.605553 83.994095,72.826859 
M65.021149,53.438019 
	C61.473267,52.231033 59.348160,53.496819 59.860405,57.228992 
	C60.092972,58.923512 61.887196,60.403690 62.973015,61.981098 
	C64.001984,59.821716 65.071617,57.679794 66.014381,55.483410 
	C66.149750,55.168045 65.673103,54.589993 65.021149,53.438019 
M104.432533,54.918072 
	C102.945328,58.277611 103.396797,60.827194 108.744370,62.586670 
	C109.043854,59.476334 109.291733,56.901966 109.539612,54.327599 
	C108.007866,54.338413 106.476120,54.349232 104.432533,54.918072 
z"/>
<path fill="#F2DA6C" opacity="1.000000" stroke="none" 
	d="
M56.468578,149.000000 
	C55.150982,144.174057 54.112072,139.368896 53.579525,134.508286 
	C53.437126,133.208572 54.841656,131.739395 55.536011,130.348007 
	C56.753101,131.139832 58.871777,131.774689 59.041393,132.748901 
	C60.167274,139.215378 64.052925,139.165405 69.129539,137.848267 
	C81.354675,134.676407 93.734268,132.423172 106.421120,132.022720 
	C110.188614,131.903809 113.930794,130.982620 119.089539,130.221848 
	C117.863388,136.472382 116.705536,142.374756 115.773849,148.638565 
	C109.312355,149.000000 102.624710,149.000000 95.309982,148.578033 
	C94.664490,146.504395 94.905884,144.790924 94.532936,143.223633 
	C94.298775,142.239609 93.137543,140.728302 92.400383,140.733002 
	C87.548050,140.763870 82.697937,141.142563 77.319145,141.436707 
	C77.540413,143.894684 77.770203,146.447342 78.000000,149.000000 
	C70.979050,149.000000 63.958103,149.000000 56.468578,149.000000 
z"/>
<path fill="#070703" opacity="1.000000" stroke="none" 
	d="
M115.531342,0.999999 
	C113.625389,4.178501 111.250786,7.357005 108.463760,11.087548 
	C107.305962,10.696670 105.604576,10.220479 103.979141,9.557972 
	C91.089775,4.304441 78.332626,3.673777 65.593071,10.189244 
	C64.689659,10.651279 62.592339,9.741437 61.589573,8.857551 
	C59.064804,6.632085 56.848701,4.056435 54.754433,1.310578 
	C75.020897,1.000000 95.041786,1.000000 115.531342,0.999999 
z"/>
<path fill="#0C0B05" opacity="1.000000" stroke="none" 
	d="
M78.467606,149.000000 
	C77.770203,146.447342 77.540413,143.894684 77.319145,141.436707 
	C82.697937,141.142563 87.548050,140.763870 92.400383,140.733002 
	C93.137543,140.728302 94.298775,142.239609 94.532936,143.223633 
	C94.905884,144.790924 94.664490,146.504395 94.841446,148.578033 
	C89.645073,149.000000 84.290138,149.000000 78.467606,149.000000 
z"/>
<path fill="#D74642" opacity="1.000000" stroke="none" 
	d="
M100.708092,113.709839 
	C104.928780,114.010551 108.820992,114.308624 112.691330,114.130676 
	C115.570007,113.998314 118.988258,112.301849 119.650002,116.901138 
	C120.845459,125.209808 123.216393,125.315422 115.764587,126.661575 
	C106.676834,128.303253 97.425407,129.049911 88.236885,130.115738 
	C85.627098,130.418457 84.269196,129.376328 84.326752,126.451256 
	C84.463425,119.504524 84.370743,112.553291 84.370743,105.908180 
	C92.151924,103.572289 93.334534,104.068443 97.011726,109.916328 
	C97.867676,111.277565 99.237083,112.315941 100.708092,113.709839 
z"/>
<path fill="#F3D970" opacity="1.000000" stroke="none" 
	d="
M62.078251,114.193756 
	C63.712669,119.687508 62.136292,123.807182 57.692066,126.563797 
	C53.584053,129.111877 49.317425,128.631577 45.706608,125.517509 
	C42.254562,122.540375 41.183098,118.600731 42.855633,114.235199 
	C44.356522,110.317688 47.419388,108.062103 51.511742,107.698601 
	C56.297897,107.273453 59.770054,109.570976 62.078251,114.193756 
z"/>
<path fill="#F6DB71" opacity="1.000000" stroke="none" 
	d="
M101.923843,94.677277 
	C102.962685,94.036285 103.651405,93.513588 104.427437,93.275589 
	C109.925713,91.589325 116.214684,94.114723 118.457718,98.854622 
	C120.389450,102.936684 118.554764,107.563744 113.801056,110.598625 
	C109.095757,113.602600 103.193634,112.779358 99.903084,108.660103 
	C96.668015,104.610336 97.297119,99.561264 101.923843,94.677277 
z"/>
<path fill="#F9E7E5" opacity="1.000000" stroke="none" 
	d="
M81.404190,126.831581 
	C80.977898,129.038681 83.272232,132.218384 78.697845,132.621231 
	C75.889839,119.874435 73.544441,107.614357 71.199043,95.354294 
	C72.200157,95.189804 73.201279,95.025314 74.643929,95.284164 
	C77.191704,106.082199 79.297951,116.456886 81.404190,126.831581 
z"/>
<path fill="#FAEEEC" opacity="1.000000" stroke="none" 
	d="
M74.945938,133.763519 
	C73.881424,134.109955 72.816902,134.456390 71.399834,134.409332 
	C68.741112,121.537178 66.434929,109.058517 64.128754,96.579857 
	C65.132057,96.354210 66.135353,96.128555 67.542992,96.376221 
	C70.280197,109.154198 72.613068,121.458855 74.945938,133.763519 
z"/>
<path fill="#D94844" opacity="1.000000" stroke="none" 
	d="
M75.300621,133.782318 
	C72.613068,121.458855 70.280197,109.154198 67.926193,96.445572 
	C68.776421,95.797707 69.647781,95.553825 70.859100,95.332115 
	C73.544441,107.614357 75.889839,119.874435 78.276932,132.553268 
	C77.430855,133.248413 76.543076,133.524780 75.300621,133.782318 
z"/>
<path fill="#D84B47" opacity="1.000000" stroke="none" 
	d="
M63.787468,96.552719 
	C66.434929,109.058517 68.741112,121.537178 71.058670,134.428192 
	C70.299843,134.904541 69.529625,134.968552 68.330238,134.634659 
	C66.968925,130.441360 66.036797,126.645935 65.104668,122.850517 
	C65.242935,122.033241 65.381195,121.215973 65.696198,119.989883 
	C65.872940,119.581070 65.888153,119.368324 65.888153,119.368324 
	C65.738098,117.835342 65.588051,116.302361 65.610573,114.099365 
	C65.478516,112.965431 65.173882,112.501518 64.869247,112.037598 
	C64.241173,111.183990 63.613094,110.330383 62.879253,108.784607 
	C62.109936,104.454666 61.446384,100.816895 60.782829,97.179115 
	C61.670612,96.961273 62.558399,96.743423 63.787468,96.552719 
z"/>
<path fill="#CD423F" opacity="1.000000" stroke="none" 
	d="
M119.603867,110.499023 
	C124.129051,101.306107 123.717072,98.615402 116.507446,91.629707 
	C121.508224,90.925735 125.744843,93.537064 126.871330,98.017715 
	C128.425781,104.200623 126.099136,108.412285 119.603867,110.499023 
z"/>
<path fill="#CC4743" opacity="1.000000" stroke="none" 
	d="
M81.566414,126.481857 
	C79.297951,116.456886 77.191704,106.082199 75.025574,95.313988 
	C75.764023,94.648430 76.562370,94.376389 77.839127,94.483192 
	C79.521400,99.214767 80.725288,103.567490 81.929176,107.920219 
	C81.862328,113.990860 81.795479,120.061501 81.566414,126.481857 
z"/>
<path fill="#EAE6D6" opacity="1.000000" stroke="none" 
	d="
M58.925812,86.807770 
	C60.190815,86.338783 61.648605,85.230247 62.678654,85.540733 
	C64.532234,86.099457 66.775871,87.124908 67.683182,88.652359 
	C69.067947,90.983597 68.330101,93.120598 64.913376,93.252922 
	C62.383919,93.350876 59.864323,93.703445 58.428864,93.839455 
	C58.967533,91.264717 59.413948,89.130936 59.406178,86.858818 
	C58.951996,86.720482 58.925812,86.807770 58.925812,86.807770 
z"/>
<path fill="#EBD1D0" opacity="1.000000" stroke="none" 
	d="
M64.899704,123.139343 
	C66.036797,126.645935 66.968925,130.441360 67.942871,134.637299 
	C66.564873,135.013351 64.077728,135.376694 63.904293,134.899368 
	C63.004852,132.423965 62.366589,129.738861 62.327637,127.116554 
	C62.309551,125.899086 63.856995,124.658356 64.899704,123.139343 
z"/>
<path fill="#FBF9F0" opacity="1.000000" stroke="none" 
	d="
M53.872604,88.045975 
	C53.191032,89.710091 52.509460,91.374199 51.827888,93.038315 
	C48.560661,90.887489 46.939575,101.224991 42.725754,93.748001 
	C46.562584,92.553154 45.535721,84.827042 52.593655,87.167618 
	C53.004745,87.000305 52.912342,86.997810 52.815956,87.391937 
	C53.137688,87.883759 53.555801,87.981453 53.958649,88.040138 
	C53.943378,88.001129 53.872604,88.045975 53.872604,88.045975 
z"/>
<path fill="#CD423E" opacity="1.000000" stroke="none" 
	d="
M45.153938,98.614937 
	C46.559925,100.598122 47.622448,102.378326 48.819489,104.383911 
	C46.350277,106.030548 44.329269,107.378296 41.356133,109.360992 
	C41.356133,105.851212 41.173725,102.981506 41.419926,100.149055 
	C41.585487,98.244370 42.683613,97.043251 45.153938,98.614937 
z"/>
<path fill="#DFD9BF" opacity="1.000000" stroke="none" 
	d="
M98.977081,87.894409 
	C100.716461,86.613609 102.318832,84.736778 104.250557,84.292709 
	C105.282677,84.055450 106.883018,86.290001 108.637901,87.751190 
	C104.962265,89.367058 102.326347,90.525848 99.345741,91.409073 
	C98.993065,90.053810 98.985069,88.974113 98.977081,87.894409 
z"/>
<path fill="#E9E7DB" opacity="1.000000" stroke="none" 
	d="
M72.629074,91.908600 
	C71.368187,90.673431 70.484634,89.507011 69.415291,88.095314 
	C70.584335,86.055916 71.492104,83.812660 74.166489,87.038109 
	C74.706108,87.688911 76.015816,87.676132 76.944862,88.035492 
	C78.075577,88.472847 79.179207,88.980225 80.035400,90.524643 
	C77.692406,91.008881 75.349403,91.493118 72.629074,91.908600 
z"/>
<path fill="#ECE8D3" opacity="1.000000" stroke="none" 
	d="
M58.901093,86.411537 
	C58.925812,86.807770 58.951996,86.720482 58.979828,86.686806 
	C57.521896,86.944511 56.036137,87.235886 54.211491,87.786621 
	C53.872604,88.045975 53.943378,88.001129 54.123413,87.653595 
	C53.839741,87.203316 53.376041,87.100563 52.912342,86.997810 
	C52.912342,86.997810 53.004745,87.000305 52.999474,87.046341 
	C52.438477,86.136391 51.882751,85.180397 51.336250,84.240265 
	C52.477184,83.708450 53.718132,83.005096 55.043591,82.545456 
	C56.527542,82.030861 58.088036,81.736992 59.615219,81.347076 
	C59.368938,82.903152 59.122658,84.459229 58.901093,86.411537 
z"/>
<path fill="#F0E9E8" opacity="1.000000" stroke="none" 
	d="
M82.004623,107.502869 
	C80.725288,103.567490 79.521400,99.214767 78.167130,94.507812 
	C79.254608,93.844757 80.492485,93.535912 82.080070,93.139824 
	C82.080070,98.030945 82.080070,102.558235 82.004623,107.502869 
z"/>
<path fill="#EFDFDD" opacity="1.000000" stroke="none" 
	d="
M60.450424,97.132805 
	C61.446384,100.816895 62.109936,104.454666 62.768944,108.481644 
	C61.333908,107.845932 59.903412,106.821022 58.269531,105.147659 
	C57.699150,102.302231 57.332157,100.105263 56.965168,97.908287 
	C58.016117,97.634354 59.067070,97.360428 60.450424,97.132805 
z"/>
<path fill="#EFEEEC" opacity="1.000000" stroke="none" 
	d="
M98.591949,87.837692 
	C98.985069,88.974113 98.993065,90.053810 99.005821,91.537659 
	C98.312943,92.014427 97.593323,92.233101 96.921806,92.132057 
	C94.966202,91.837791 91.868530,92.307388 93.154251,88.909996 
	C93.489822,88.023277 96.451332,88.130333 98.591949,87.837692 
z"/>
<path fill="#E3DCDA" opacity="1.000000" stroke="none" 
	d="
M54.338013,104.772324 
	C49.938911,105.731880 50.412025,102.198463 49.514557,99.345757 
	C50.698711,98.962898 51.834873,98.595551 53.367432,98.671234 
	C53.955227,101.000282 54.146618,102.886307 54.338013,104.772324 
z"/>
<path fill="#D84C48" opacity="1.000000" stroke="none" 
	d="
M54.691059,104.865257 
	C54.146618,102.886307 53.955227,101.000282 53.689629,98.711540 
	C54.450058,98.178070 55.284687,98.047325 56.542244,97.912430 
	C57.332157,100.105263 57.699150,102.302231 58.037426,104.930534 
	C57.020508,105.227310 56.032307,105.092751 54.691059,104.865257 
z"/>
<path fill="#D24844" opacity="1.000000" stroke="none" 
	d="
M64.912926,112.361824 
	C65.173882,112.501518 65.478516,112.965431 65.667801,113.634460 
	C65.353851,113.455055 65.155228,113.070549 64.912926,112.361824 
z"/>
<path fill="#D24844" opacity="1.000000" stroke="none" 
	d="
M65.807213,119.437805 
	C65.888153,119.368324 65.872940,119.581070 65.879440,119.614937 
	C65.885933,119.648804 65.726273,119.507286 65.807213,119.437805 
z"/>
<path fill="#0A0905" opacity="1.000000" stroke="none" 
	d="
M83.647827,72.660812 
	C79.995720,70.605553 75.221207,68.694427 77.192474,64.350960 
	C78.150230,62.240646 83.419304,61.277351 86.727699,61.297016 
	C89.425392,61.313057 92.109802,63.562469 94.800102,64.821602 
	C92.649406,67.310112 90.672806,69.990143 88.256630,72.186615 
	C87.372459,72.990387 85.445404,72.646957 83.647827,72.660812 
z"/>
<path fill="#2A1B13" opacity="1.000000" stroke="none" 
	d="
M65.250420,53.785767 
	C65.673103,54.589993 66.149750,55.168045 66.014381,55.483410 
	C65.071617,57.679794 64.001984,59.821716 62.973015,61.981098 
	C61.887196,60.403690 60.092972,58.923512 59.860405,57.228992 
	C59.348160,53.496819 61.473267,52.231033 65.250420,53.785767 
z"/>
<path fill="#2C1D14" opacity="1.000000" stroke="none" 
	d="
M104.688454,54.639061 
	C106.476120,54.349232 108.007866,54.338413 109.539612,54.327599 
	C109.291733,56.901966 109.043854,59.476334 108.744370,62.586670 
	C103.396797,60.827194 102.945328,58.277611 104.688454,54.639061 
z"/>
<path fill="#030202" opacity="1.000000" stroke="none" 
	d="
M52.815956,87.391937 
	C53.376041,87.100563 53.839741,87.203316 54.138680,87.692604 
	C53.555801,87.981453 53.137688,87.883759 52.815956,87.391937 
z"/>
</svg>